<?xml version="1.0" encoding="utf-8"?>
<!-- Generator: Adobe Illustrator 24.0.2, SVG Export Plug-In . SVG Version: 6.00 Build 0)  -->
<svg version="1.1" id="Layer_1" xmlns="http://www.w3.org/2000/svg" xmlns:xlink="http://www.w3.org/1999/xlink" x="0px" y="0px"
	 viewBox="0 0 64 64" style="enable-background:new 0 0 64 64;" xml:space="preserve">
<style type="text/css">
	.st0{fill:#8CA6B4;}
</style>
<title>Rectangle</title>
<desc>Created with Sketch.</desc>
<g id="Page-1">
	<g id="Desktop" transform="translate(-364.000000, -168.000000)">
		<path class="st0" d="M396,231c-7.9,0-15.9-3-21.9-9.1c-12.1-12.1-12.1-31.8,0-43.8l1.4,1.4c-11.3,11.3-11.3,28,0,39.3
			c5.5,5.5,12.8,8.5,20.5,8.5c7.7,0,15-3,20.5-8.5s8.5-11.1,8.5-18.8c0-7.7-3-15-8.5-20.5l1.4-1.4c5.9,5.9,9.1,13.6,9.1,21.9
			c0,8.3-3.2,16.1-9.1,21.9C411.9,228,403.9,231,396,231z"/>
		<polygon class="st0" points="387.3,195.3 370,184.6 374,178.2 387.3,190.2 		"/>
		<polygon class="st0" points="405.4,195.3 405.7,190.2 417.9,178.1 422.1,184.7 		"/>
	</g>
</g>
</svg>
