<?xml version="1.0" encoding="utf-8"?>
<!-- Generator: Adobe Illustrator 24.0.2, SVG Export Plug-In . SVG Version: 6.00 Build 0)  -->
<svg version="1.1" id="Layer_1" xmlns="http://www.w3.org/2000/svg" xmlns:xlink="http://www.w3.org/1999/xlink" x="0px" y="0px"
	 viewBox="0 0 64 64" style="enable-background:new 0 0 64 64;" xml:space="preserve">
<style type="text/css">
	.st0{fill:#8CA6B4;}
</style>
<title>Rectangle</title>
<desc>Created with Sketch.</desc>
<g id="Page-1">
	<g id="Desktop" transform="translate(-364.000000, -168.000000)">
		<path class="st0" d="M396,220.5c-5.3,0-10.5-2-14.5-6c-8-8-8-21,0-29l1.1-1.1l2.9,4.2l0.1,3.7l-2.8,0.3
			c-5.8,6.9-5.5,14.5,0.9,20.9c6.8,6.8,17.9,6.8,24.7,0c6.5-6.5,6.4-13.8,0.6-20.7l-2.8-0.6l0-3.7l3.2-4.2l1.1,1.1c8,8,8,21,0,29
			C406.5,218.5,401.2,220.5,396,220.5z"/>
	</g>
</g>
</svg>
